<svg id="レイヤー_1" data-name="レイヤー 1" xmlns="http://www.w3.org/2000/svg" viewBox="0 0 207.58 266.8"><defs><style>.cls-1{fill:#8d93c8;}.cls-2{fill:#425ba8;}.cls-3{fill:#6879ba;}.cls-4{fill:#4d4c4c;}</style></defs><path class="cls-1" d="M139.6,72.91a11.81,11.81,0,0,0-7.46.14,67.52,67.52,0,0,0-11.33,5.36L113,105.28c.18,0,17.11-.52,17.4-.54Z"/><path class="cls-2" d="M69.14,71c.29,2.39.74,4.94,1.32,7.58.52,2.37,1.17,4.83,1.92,7.33C75,84,85.42,76.6,87,75.47a77,77,0,0,1-1.1-12.64c0-5,3.14-9.51,6.2-11a7.7,7.7,0,0,1,3.34-.66c6.29-.19,12.78-.13,19.08,0A5.32,5.32,0,0,1,118.83,53a52.7,52.7,0,0,1,8.4-2.85,40.16,40.16,0,0,1,10-1.27,29.08,29.08,0,0,0-13.69-13.31c-3.14-1.44-5.3-1.81-17.88-1.87h-2c-12.57.06-14.74.43-17.88,1.87A30,30,0,0,0,71.1,51l0,0c-.35.84-.52,1.38-.55,1.47A41.71,41.71,0,0,0,68.85,61a46.16,46.16,0,0,0,.24,9.49C69.11,70.67,69.12,70.81,69.14,71Z"/><path class="cls-1" d="M88.67,78.16S63.84,95.46,60.44,99.34c3.59,3.58,8.88,5,17.78,5.4C83.25,102,101.76,89,101.76,89S91,80.3,88.67,78.16Z"/><path class="cls-2" d="M90.09,57.47c-2.77,6.79,0,17.11.06,18.17,0,0,21.73,17.13,22.91,18,0,0,4.77-16.49,4.83-16.71C117.89,76.93,93,58.35,90.09,57.47Z"/><path class="cls-1" d="M166.09,79.5l-.61-1.9c-3.94-11.94-5-13.89-7.3-16.43A29.7,29.7,0,0,0,139.44,52c-.52-.06-1.3-.12-2.06-.13a41.59,41.59,0,0,0-8.63,1,46.61,46.61,0,0,0-9.32,3.33c-2.19,1-4.5,2.24-6.84,3.62-2.19,1.28-4.44,2.73-6.69,4.31l14.64,10.7c.17-.1,7.15-4.06,12-5.27a14.22,14.22,0,0,1,9.26.78,10.7,10.7,0,0,1,4.55,4.5c2.24,4.09,6.36,18.59,6.19,20.53a5.27,5.27,0,0,1-1,3.12,55.14,55.14,0,0,1,5.42,6.72,42.28,42.28,0,0,1,4.54,8.79,28.88,28.88,0,0,0,8.27-17C170.24,93.66,169.93,91.48,166.09,79.5Z"/><path class="cls-2" d="M155.58,108.85a45,45,0,0,0-6.92-8.82c-1.42-1.45-3-3-4.75-4.45-2.16-1.88-4-3.31-6.16-4.86,0,0-2.69,9.4-4.49,15.56a43.72,43.72,0,0,1,7,8.93c3.37,5.48,3.84,12.2,1.6,15.53,0,0-.11.19-.27.43-3.58,5.53-17,13.48-19.07,13.75a4.35,4.35,0,0,1-3-.4,60.8,60.8,0,0,1-5.48,8.14,41.36,41.36,0,0,1-6.51,6.27,28.56,28.56,0,0,0,13.2,3.25,26.25,26.25,0,0,0,5.72-.63c.17,0,.6-.13,1.23-.3,10.54-2.82,22.49-11.5,28.42-20.64.35-.54.58-.92.68-1.09,5.38-9.18,3.63-18.63,2.62-22.28A32.07,32.07,0,0,0,155.58,108.85Z"/><path class="cls-3" d="M105.64,125c3.42-.09,16.4.29,23.63,0,4.52-.18,9.68-.67,10.95-1.24a7.26,7.26,0,0,0-.25-1.2,36,36,0,0,0-9.65-15c-7.74.62-26.71.81-29.6.81C100.86,108.93,105.22,123.32,105.64,125Z"/><path class="cls-3" d="M56.69,121.05A49.42,49.42,0,0,0,74.28,125c2.1.1,4.68.17,7.45.23-.11-.35-3-10.13-5.09-17.51a42,42,0,0,1-13.47-2.53c-3.3-1.31-10.07-6.14-5.55-18.53,2-5.37,3.71-11.77,4.34-13.13a5.32,5.32,0,0,1,3.9-3.19,51.06,51.06,0,0,1-.15-9.74,42.77,42.77,0,0,1,1.64-8.5A29.1,29.1,0,0,0,49.4,61.17C47.06,63.71,46,65.66,42.1,77.6l-.41,1.24-.2.66c-3.84,12-4.15,14.15-3.75,17.58A29.83,29.83,0,0,0,49.1,116.81,42,42,0,0,0,56.69,121.05Z"/><path class="cls-2" d="M85.51,126.45c2.12,6.12,3.57,11,5.92,15.35,3.4-1,5-3,7.78-7.69a78.69,78.69,0,0,0,3.71-7.24c-1.36-4.68-4-13.42-5.91-19.91l-.21-.71c-.87-3-1.74-5.72-2.46-8.19-2.11,1.4-10.71,7-14.43,9.37C80,107.9,83.84,121.63,85.51,126.45Z"/><path class="cls-1" d="M110.26,152.1c5.23-5.65,9.33-14.45,9.63-15.11,1.2-2.61,2.4-5.35,3.59-8.18l.28-.66h0c-2.65.1-17.84,0-17.84,0a86.48,86.48,0,0,1-4.84,8.94c-2.67,4.23-4.42,6.11-7.74,7.4-7.93,3.07-12.3-1.83-17.44-5.54-5.33-3.89-9-7.34-9.61-8.27a5.62,5.62,0,0,1-1.24-3.76,55,55,0,0,1-9.92-3.05,40.87,40.87,0,0,1-7-3.87,27.83,27.83,0,0,0,3.21,19.5l.17.29c1.75,3,3.78,4.78,13.62,12l1.11.8h0l.51.37c10.21,7.35,12.18,8.32,15.57,9a27.47,27.47,0,0,0,5.43.54,29.81,29.81,0,0,0,16.06-4.72A30.82,30.82,0,0,0,110.26,152.1Z"/><path class="cls-4" d="M37.28,230.47H34.8a.93.93,0,0,1-1-1v-8a.93.93,0,0,1,1-1h2.1c1.82,0,2.76.73,2.76,2.45v.14a2.06,2.06,0,0,1-1.39,2.23v0A2.17,2.17,0,0,1,40,227.6V228C40,229.7,39.09,230.47,37.28,230.47Zm1.8-7.61c0-1.46-.75-2-2.21-2H35c-.42,0-.61.18-.61.64V225h2.58c1.41,0,2.16-.56,2.16-2Zm-1.85,2.64H34.34v3.8c0,.46.19.64.61.64h2.28c1.46,0,2.21-.55,2.21-2v-.31C39.44,226.13,38.69,225.5,37.23,225.5Z"/><path class="cls-4" d="M47.76,228.09c0,1.76-.89,2.56-2.65,2.56s-2.65-.8-2.65-2.56v-2.83c0-1.76.89-2.56,2.65-2.56s2.65.8,2.65,2.56Zm-.55-2.72c0-1.52-.68-2.15-2.1-2.15s-2.1.63-2.1,2.15V228c0,1.52.69,2.14,2.1,2.14s2.1-.62,2.1-2.14Z"/><path class="cls-4" d="M55.06,225.32c0-1.52-.67-2.1-2-2.1s-2,.58-2,2.1v5a.26.26,0,0,1-.29.29c-.16,0-.26-.1-.26-.29v-5.08c0-1.73.87-2.52,2.59-2.52s2.59.79,2.59,2.52v5.08a.25.25,0,0,1-.27.29.26.26,0,0,1-.28-.29Z"/><path class="cls-4" d="M60.92,230.65c-1.75,0-2.65-.8-2.65-2.56v-2.86A2.62,2.62,0,0,1,63,223.76h0V220a.27.27,0,0,1,.29-.3c.16,0,.27.1.27.3v8.07C63.58,229.85,62.68,230.65,60.92,230.65Zm2.1-5.28c0-1.51-.71-2.15-2.1-2.15s-2.1.63-2.1,2.15V228c0,1.52.69,2.14,2.1,2.14S63,229.51,63,228Z"/><path class="cls-4" d="M75.43,229.21h0a2.18,2.18,0,0,1-2.15,1.07,2.21,2.21,0,0,1-2.45-2.52v-4.7c0-.2.1-.3.26-.3a.27.27,0,0,1,.29.3v4.6c0,1.52.67,2.1,2,2.1s2-.61,2-2.1v-4.6c0-.2.1-.3.28-.3s.27.1.27.3v7.46c0,1.76-1,2.56-2.67,2.56A2.21,2.21,0,0,1,71,231.67a.47.47,0,0,1,0-.15.24.24,0,0,1,.26-.27.26.26,0,0,1,.27.19,1.71,1.71,0,0,0,1.84,1.13,1.86,1.86,0,0,0,2.12-2.14Z"/><path class="cls-4" d="M84,228.09c0,1.76-.9,2.56-2.65,2.56s-2.66-.8-2.66-2.56v-2.83c0-1.76.9-2.56,2.66-2.56s2.65.8,2.65,2.56Zm-.55-2.72c0-1.52-.69-2.15-2.1-2.15s-2.1.63-2.1,2.15V228c0,1.52.68,2.14,2.1,2.14s2.1-.62,2.1-2.14Z"/><path class="cls-4" d="M91.27,223.06a.27.27,0,0,1,.29-.3c.16,0,.27.1.27.3v5.08c0,1.72-.88,2.51-2.6,2.51s-2.59-.79-2.59-2.51v-5.08c0-.2.11-.3.27-.3s.28.1.28.3v5c0,1.52.67,2.1,2,2.1s2-.58,2-2.1Z"/><path class="cls-4" d="M94.63,225.16c0-1.67.76-2.46,2.31-2.46a2,2,0,0,1,2.26,1.65.62.62,0,0,1,0,.18.25.25,0,0,1-.27.27.26.26,0,0,1-.28-.24,1.53,1.53,0,0,0-1.73-1.34c-1.21,0-1.76.63-1.76,2v5.05a.28.28,0,1,1-.55,0Z"/><path class="cls-4" d="M105.4,225.22c0-1.73.88-2.52,2.59-2.52,1.44,0,2.29.55,2.53,1.74a.62.62,0,0,1,0,.17.26.26,0,0,1-.29.28.26.26,0,0,1-.28-.24c-.18-1-.83-1.43-2-1.43-1.37,0-2,.58-2,2.1V228c0,1.52.67,2.1,2,2.1,1.15,0,1.8-.4,2-1.43a.26.26,0,0,1,.28-.24.27.27,0,0,1,.29.29.6.6,0,0,1,0,.16c-.24,1.19-1.09,1.74-2.53,1.74-1.71,0-2.59-.79-2.59-2.51Z"/><path class="cls-4" d="M117.71,223.06c0-.2.1-.3.28-.3s.27.1.27.3v5.08c0,1.72-.88,2.51-2.59,2.51s-2.59-.79-2.59-2.51v-5.08c0-.2.1-.3.26-.3a.27.27,0,0,1,.29.3v5c0,1.52.67,2.1,2,2.1s2-.58,2-2.1Z"/><path class="cls-4" d="M126,228.18c0,1.64-.86,2.47-2.69,2.47a2.34,2.34,0,0,1-2.52-1.43.36.36,0,0,1,0-.16.26.26,0,0,1,.28-.28.28.28,0,0,1,.27.22c.24.71.88,1.13,2,1.13,1.46,0,2.14-.61,2.14-2v-.09c0-.9-.43-1.21-1.44-1.21H122.8c-1.25,0-1.92-.48-1.92-1.67v-.06a2.59,2.59,0,0,1,4.9-1,.38.38,0,0,1,0,.17.25.25,0,0,1-.28.25.31.31,0,0,1-.29-.21,1.69,1.69,0,0,0-1.83-1.13,1.73,1.73,0,0,0-2,1.95c0,.9.45,1.18,1.45,1.18h1.19c1.25,0,1.9.49,1.9,1.68Z"/><path class="cls-4" d="M129,223.4h-1a.24.24,0,0,1-.26-.27c0-.15.07-.25.26-.25h1v-1.7a.28.28,0,1,1,.55,0v1.7h2.95a.24.24,0,0,1,.27.25.25.25,0,0,1-.27.27H129.5v5.14c0,1.09.49,1.59,1.43,1.59a1.29,1.29,0,0,0,1.46-1.34.25.25,0,0,1,.28-.24.27.27,0,0,1,.27.3,1,1,0,0,1,0,.19,1.74,1.74,0,0,1-2,1.61,1.81,1.81,0,0,1-2-2Z"/><path class="cls-4" d="M140.49,228.09c0,1.76-.89,2.56-2.65,2.56s-2.65-.8-2.65-2.56v-2.83c0-1.76.89-2.56,2.65-2.56s2.65.8,2.65,2.56Zm-.55-2.72c0-1.52-.68-2.15-2.1-2.15s-2.1.63-2.1,2.15V228c0,1.52.69,2.14,2.1,2.14s2.1-.62,2.1-2.14Z"/><path class="cls-4" d="M147.18,225.2c0-1.41-.55-2-1.68-2s-1.79.55-1.79,2v5.1a.26.26,0,0,1-.29.29c-.16,0-.26-.1-.26-.29v-5.19c0-1.7.85-2.41,2.31-2.41a1.88,1.88,0,0,1,2,1.19h0a1.8,1.8,0,0,1,2-1.19c1.48,0,2.33.71,2.33,2.41v5.19a.26.26,0,0,1-.29.29c-.18,0-.26-.1-.26-.29v-5.1c0-1.43-.63-2-1.79-2s-1.7.57-1.7,2v5.1a.25.25,0,0,1-.27.29.26.26,0,0,1-.28-.29Z"/><path class="cls-4" d="M155,226.83V228c0,1.53.69,2.14,2.1,2.14a1.77,1.77,0,0,0,1.94-1.26.27.27,0,0,1,.28-.21.25.25,0,0,1,.27.27.55.55,0,0,1,0,.16,2.25,2.25,0,0,1-2.46,1.56c-1.75,0-2.65-.8-2.65-2.56v-2.87c0-1.73.88-2.52,2.59-2.52s2.6.79,2.6,2.52v.95a.6.6,0,0,1-.67.66Zm4.1-1.51c0-1.5-.67-2.1-2.06-2.1s-2,.6-2,2.1v1h3.82c.19,0,.28-.1.28-.29Z"/><path class="cls-4" d="M162.21,225.16c0-1.67.76-2.46,2.31-2.46a2,2,0,0,1,2.26,1.65.62.62,0,0,1,0,.18.25.25,0,0,1-.27.27.26.26,0,0,1-.28-.24,1.53,1.53,0,0,0-1.73-1.34c-1.21,0-1.76.63-1.76,2v5.05a.26.26,0,0,1-.28.29.25.25,0,0,1-.27-.29Z"/><path class="cls-4" d="M173.82,228.18c0,1.64-.86,2.47-2.7,2.47-1.46,0-2.19-.56-2.51-1.43a.36.36,0,0,1,0-.16.26.26,0,0,1,.28-.28.3.3,0,0,1,.27.22c.24.71.88,1.13,2,1.13,1.46,0,2.15-.61,2.15-2v-.09c0-.9-.43-1.21-1.45-1.21h-1.17c-1.25,0-1.92-.48-1.92-1.67v-.06a2.59,2.59,0,0,1,4.9-1,.38.38,0,0,1,0,.17c0,.16-.12.25-.29.25a.28.28,0,0,1-.28-.21,1.69,1.69,0,0,0-1.83-1.13,1.73,1.73,0,0,0-2,1.95c0,.9.44,1.18,1.44,1.18h1.19c1.25,0,1.91.49,1.91,1.68Z"/><path class="cls-4" d="M43.32,212.22c-6.28,0-9.6-3.29-9.6-9.51V184.38a2.3,2.3,0,1,1,4.59,0v18c0,4,1.31,5.37,5,5.37s5.09-1.45,5.09-5.37V184.34a2.26,2.26,0,1,1,4.52,0v18.37C52.93,208.93,49.61,212.22,43.32,212.22Z"/><path class="cls-4" d="M139.81,181.1c6.32,0,9.67,3.29,9.67,9.52V209a2.32,2.32,0,1,1-4.63,0v-18c0-4-1.32-5.37-5-5.37s-5.12,1.45-5.12,5.37V209a2.28,2.28,0,1,1-4.55,0V190.62C130.14,184.39,133.49,181.1,139.81,181.1Z"/><path class="cls-4" d="M60.77,211.71a2.22,2.22,0,0,1-2.28-2.36V186.09a4,4,0,0,1,4.26-4.27h5.07c6.07,0,9.41,3.11,9.41,8.75v1.24c0,5.64-3.34,8.75-9.41,8.75H63.08v8.79A2.26,2.26,0,0,1,60.77,211.71Zm7-15.63c3.46,0,4.81-1.24,4.81-4.42v-.94c0-3.18-1.35-4.42-4.81-4.42H63.09s0,.08,0,.14v9.64Z"/><path class="cls-4" d="M85.45,211.39a4,4,0,0,1-4.26-4.26v-21a4,4,0,0,1,4.26-4.27H91c7.23,0,8.75,4.33,8.75,8v.35a7.71,7.71,0,0,1-2,5.66c1.92,1.36,3,3.6,3,6.54v1c0,3.69-1.52,8.08-8.75,8.08Zm6.36-4.47c3.16,0,4.23-.95,4.23-3.77v-.81c0-2.89-1.15-4-4.23-4h-6v8.4c0,.05,0,.1,0,.14Zm-.82-13c3,0,4.11-1,4.11-3.8v-.16c0-2.41-.65-3.64-4.23-3.64H85.79s0,.08,0,.14v7.46Z"/><path class="cls-4" d="M115.07,212c-6.45,0-9.86-3.3-9.86-9.55V190.8c0-6.25,3.41-9.55,9.86-9.55s9.86,3.3,9.86,9.55v11.61C124.93,208.66,121.52,212,115.07,212Zm0-26.2c-3.87,0-5.24,1.4-5.24,5.35v11c0,4,1.37,5.35,5.24,5.35s5.24-1.4,5.24-5.35v-11C120.31,187.16,118.94,185.76,115.07,185.76Z"/><path class="cls-4" d="M159,211.49a4,4,0,0,1-4.29-4.3V186a4,4,0,0,1,4.29-4.29h5c8.15,0,9.86,5.07,9.86,9.32v11.13c0,4.25-1.71,9.32-9.86,9.32Zm5-4.51c3.87,0,5.24-1.34,5.24-5.12V191.35c0-3.78-1.37-5.12-5.24-5.12h-4.69V207Z"/></svg>