<svg width="61" height="60" viewBox="0 0 61 60" fill="none" xmlns="http://www.w3.org/2000/svg">
<circle cx="30.5" cy="30" r="30" fill="#D7D7D7"/>
<path d="M36.389 16.5408C35.0207 15.0635 33.1096 14.25 31.0002 14.25C28.8796 14.25 26.9622 15.0586 25.6002 16.5267C24.2235 18.011 23.5527 20.0283 23.7102 22.2066C24.0224 26.5041 27.2926 30 31.0002 30C34.7078 30 37.9724 26.5048 38.2895 22.208C38.4491 20.0494 37.7741 18.0363 36.389 16.5408Z" fill="#4A67AE"/>
<path d="M43.3752 45.75H18.6252C18.3013 45.7542 17.9804 45.6862 17.6861 45.5508C17.3918 45.4154 17.1313 45.2161 16.9237 44.9674C16.4666 44.4211 16.2824 43.6751 16.4188 42.9206C17.0123 39.6286 18.8643 36.8632 21.7752 34.9219C24.3613 33.1985 27.6372 32.25 31.0002 32.25C34.3633 32.25 37.6391 33.1992 40.2252 34.9219C43.1362 36.8625 44.9882 39.6279 45.5816 42.9199C45.718 43.6744 45.5338 44.4204 45.0768 44.9667C44.8692 45.2155 44.6088 45.415 44.3144 45.5505C44.0201 45.686 43.6992 45.7541 43.3752 45.75Z" fill="#4A67AE"/>
</svg>
